PathFileType	4	(X/Y/Z)	C:/Users/opensim2020/Desktop/walking_exp_matlab/subject02_walking15_straight_02.trc																																																																																																																												
DataRate	CameraRate	NumFrames	NumMarkers	Units	OrigDataRate	OrigDataStartFrame	OrigNumFrames																																																																																																																								
100	100	9	42	mm	100	887	142																																																																																																																								
Frame#	Time	LFHD			RFHD			LBHD			RBHD			C7			T10			CLAV			STRN			RBAK			LSHO			LUPA			LELB			LFRM			LWRA			LWRB			LFIN			RSHO			RUPA			RELB			RFRM			RWRA			RWRB			RFIN			LASI			RASI			LPSI			RPSI			LTHI			LKNE			LTIB			LANK			LHEE			LTOE			RTHI			RKNE			RTIB			RANK			RHEE			RTOE			*39			*40			*41		
		X1	Y1	Z1	X2	Y2	Z2	X3	Y3	Z3	X4	Y4	Z4	X5	Y5	Z5	X6	Y6	Z6	X7	Y7	Z7	X8	Y8	Z8	X9	Y9	Z9	X10	Y10	Z10	X11	Y11	Z11	X12	Y12	Z12	X13	Y13	Z13	X14	Y14	Z14	X15	Y15	Z15	X16	Y16	Z16	X17	Y17	Z17	X18	Y18	Z18	X19	Y19	Z19	X20	Y20	Z20	X21	Y21	Z21	X22	Y22	Z22	X23	Y23	Z23	X24	Y24	Z24	X25	Y25	Z25	X26	Y26	Z26	X27	Y27	Z27	X28	Y28	Z28	X29	Y29	Z29	X30	Y30	Z30	X31	Y31	Z31	X32	Y32	Z32	X33	Y33	Z33	X34	Y34	Z34	X35	Y35	Z35	X36	Y36	Z36	X37	Y37	Z37	X38	Y38	Z38	X39	Y39	Z39	X40	Y40	Z40	X41	Y41	Z41	X42	Y42	Z42
																																																																																																																															
18	0.17	-743.09106	1745.36169	966.87915	-749.74469	1731.55225	1111.01782	-868.91931	1662.96106	955.14771	-887.34216	1646.75122	1096.55664	-920.93713	1525.32715	1023.83893	-972.51123	1251.41394	1035.53601	-781.34845	1458.48682	1022.00397	-728.01343	1286.28271	1034.43201	-981.57336	1352.62378	1087.58521	-840.65326	1497.92676	848.64038	-844.2124	1298.55408	766.03375	-832.88501	1155.35791	748.85742	-770.1004	1034.86792	762.1571	-673.37683	955.57715	819.53583	-711.35437	930.0517	787.39514	-664.68433	885.73419	791.34082	-859.92719	1496.79639	1212.00818	-902.97369	1314.23914	1306.8833	-895.74011	1168.30969	1334.58875	-864.51819	1052.61865	1357.67944	-811.82361	927.17401	1343.38538	-859.15369	923.72748	1374.56995	-820.72058	862.85669	1380.93811	-758.56555	975.85992	911.06995	-746.0174	986.67297	1165.4834	-959.36078	1033.31177	998.30945	-960.8833	1042.86267	1112.45215	-790.9248	661.24017	868.01361	-786.56848	484.79865	892.49915	-938.57117	389.51096	913.16595	-1087.06958	228.94492	948.87848	-1118.45447	227.15419	1010.20026	-1025.71533	91.43259	911.52411	-795.6496	684.48438	1250.27356	-783.77515	473.32706	1217.94031	-832.41071	291.20248	1238.98804	-867.25299	99.39743	1212.9231	-910.6319	44.94979	1165.16638	-716.56897	42.85325	1215.86877	-853.02045	1807.43408	1049.82922	-2845.34497	1034.39307	3360.47949	NaN	NaN	NaN
19	0.18	-730.11981	1747.12927	968.42139	-735.73541	1733.58984	1112.67151	-855.34503	1664.79199	957.13562	-873.39612	1648.74487	1098.62939	-907.26105	1527.37866	1026.54675	-959.65363	1253.86584	1038.92395	-767.56287	1460.41101	1023.72174	-714.72339	1288.12756	1036.07129	-967.51715	1355.23071	1091.2738	-828.27399	1499.90125	851.01373	-835.17163	1301.25073	767.38019	-826.45233	1158.41565	748.64142	-767.74908	1035.55139	759.37378	-673.00806	951.32825	814.32458	-712.27155	928.32788	781.97333	-667.56671	881.88403	784.98279	-844.75055	1499.68213	1213.97839	-883.41278	1316.85181	1310.24829	-873.09045	1171.06421	1338.55811	-838.78473	1056.23267	1361.12451	-783.29797	932.25848	1346.88599	-829.82166	927.60364	1378.55322	-789.7746	867.87299	1384.68396	-746.83435	979.69489	912.17603	-733.34259	988.20105	1167.54321	-946.30408	1035.71472	1001.4903	-947.6369	1044.67944	1115.72266	-772.15106	665.21576	869.51874	-763.06342	489.11121	895.92688	-911.16547	389.61414	918.67889	-1053.92859	223.03954	954.77094	-1085.40088	220.31804	1015.99725	-986.73975	88.44765	918.49731	-788.2381	684.82538	1251.51147	-781.52356	473.37408	1219.72961	-831.76703	291.42175	1239.68433	-867.14398	99.61256	1212.8645	-910.54004	45.22553	1164.93066	-716.57208	42.78141	1215.91101	-839.34381	1809.36572	1051.96228	-2845.95361	1034.43481	3357.44556	NaN	NaN	NaN
20	0.19	-716.74268	1748.7074	969.77502	-721.90491	1735.48438	1113.94592	-841.8446	1666.15222	959.04828	-859.48065	1650.46521	1100.6377	-893.44104	1529.09436	1029.15173	-946.36035	1255.9624	1042.35327	-753.73163	1462.1167	1025.43298	-701.45874	1289.63147	1037.7417	-953.63831	1357.60632	1094.95837	-815.82666	1501.60913	853.33942	-825.78827	1303.67529	768.5564	-819.81787	1161.15259	748.36481	-765.30121	1036.29858	756.25275	-673.26782	947.50867	809.01178	-713.27374	926.703	776.47571	-670.68268	878.44366	778.51556	-829.92682	1502.19836	1215.52234	-864.01782	1319.42224	1313.63171	-850.63354	1173.84375	1342.26611	-813.11853	1059.922	1364.66174	-754.7547	937.23096	1349.53845	-800.70471	931.66437	1382.51367	-758.7912	873.04785	1388.13843	-733.83075	983.47803	913.64777	-720.76147	989.47278	1169.83398	-933.10602	1037.82043	1004.31824	-934.34558	1046.22937	1118.7384	-753.27942	668.95123	870.98517	-739.44592	492.97586	899.07349	-883.89136	388.51355	923.31421	-1019.76434	215.87701	960.5658	-1051.50281	212.34061	1021.57941	-945.40271	84.9257	925.23218	-781.13354	684.74286	1252.68372	-779.2193	473.2179	1220.58264	-831.3205	291.694	1240.19226	-867.0116	99.93896	1212.79529	-910.66278	45.78659	1164.8457	-716.54382	42.77424	1216.00122	-825.67053	1810.99524	1053.48486	-2846.07031	1034.29553	3357.38135	NaN	NaN	NaN
21	0.2	-703.23499	1749.92944	970.97913	-708.03729	1737.08411	1115.24121	-828.40228	1667.15356	960.79694	-845.56537	1651.89563	1102.48254	-879.64911	1530.55005	1031.76306	-933.05212	1257.82007	1045.80139	-739.97131	1463.4884	1027.07886	-688.06879	1290.78064	1039.45886	-939.53015	1359.59778	1098.36011	-803.3941	1503.03735	855.57288	-816.26062	1305.81958	769.67316	-813.42279	1163.84949	747.78784	-763.17255	1037.1532	753.06567	-673.89111	943.97363	803.58832	-715.64539	925.3291	770.71613	-674.34784	875.12354	772.09558	-814.98682	1504.40234	1217.24536	-844.83905	1321.86951	1317.13525	-828.26563	1176.37646	1345.8064	-787.51941	1063.63098	1368.2821	-726.20148	942.39166	1352.44519	-771.47443	935.73914	1386.17859	-727.63934	878.14557	1391.3042	-720.92297	987.07086	915.85547	-708.19202	990.3678	1172.29285	-919.9541	1039.58533	1006.82996	-921.10718	1047.53467	1121.51758	-735.04602	672.65088	872.08978	-716.33685	496.34695	901.88275	-856.55383	386.15622	927.17084	-984.73999	207.73544	966.08112	-1016.29102	202.85503	1027.04211	-902.90942	81.42538	931.52301	-773.9259	683.96442	1253.86389	-776.74982	473.08527	1221.52686	-830.70398	292.07953	1240.71545	-866.9549	100.45547	1212.87732	-910.49146	46.22654	1164.58484	-716.34058	42.65322	1215.9314	-812.06567	1812.33679	1054.86377	-2845.27271	1034.23608	3360.24243	NaN	NaN	NaN
22	0.21	-689.71399	1750.82568	972.23749	-694.05609	1738.32947	1116.55249	-814.92419	1668.14001	962.41187	-831.58002	1652.97961	1104.2511	-865.81805	1531.66174	1034.27307	-919.71741	1259.302	1049.10461	-726.21472	1464.50916	1028.66333	-674.76373	1291.6875	1041.19202	-925.45508	1361.29468	1101.62488	-790.8606	1504.1012	857.7677	-806.74866	1307.87585	770.29224	-806.83508	1166.3064	747.15271	-761.10071	1037.9646	749.75604	-674.86261	940.32581	798.11816	-717.0647	924.04895	764.95221	-677.79382	871.96405	765.70978	-800.27167	1506.20569	1218.60938	-825.79639	1324.08618	1320.42188	-805.99475	1178.71631	1349.16882	-762.01605	1067.01306	1371.19019	-697.6933	947.56104	1355.10425	-742.10364	939.68982	1389.36475	-696.79065	883.64117	1394.41687	-707.08661	990.27295	918.7619	-695.77283	990.85156	1174.82922	-906.76819	1041.00403	1009.05115	-907.90369	1048.54065	1123.97766	-716.90698	675.91791	873.3855	-693.40778	499.09277	904.31616	-829.13074	382.6033	930.29407	-948.80908	198.62239	971.23914	-980.19196	192.35522	1032.34558	-859.71338	77.36524	937.31506	-767.35809	683.59259	1254.77954	-774.11719	472.92068	1222.46716	-829.79156	292.42783	1241.02979	-866.65253	100.79276	1212.76221	-910.73102	46.67061	1164.10291	-716.31152	42.63776	1216.01355	-798.43915	1813.41248	1056.14514	-2846.08716	1034.42871	3357.49243	NaN	NaN	NaN
23	0.22	-676.27234	1751.30029	973.2088	-680.16644	1739.32312	1117.65649	-801.40222	1668.38391	963.95276	-817.56213	1653.76648	1106.0321	-852.01105	1532.43311	1036.65637	-905.99786	1260.35193	1052.26636	-712.32318	1465.03918	1030.42932	-661.36969	1292.18372	1042.99744	-911.38824	1362.57922	1104.7428	-778.07825	1504.77161	859.9303	-797.66333	1309.71729	771.04541	-800.1897	1168.59424	746.55017	-758.7489	1038.77893	746.27698	-676.13745	936.82391	792.62158	-718.72888	922.89703	758.83124	-681.81775	869.12457	759.30597	-785.6402	1507.6095	1219.92786	-807.17297	1325.63647	1322.96826	-783.85352	1180.80615	1352.37427	-736.6618	1070.33789	1374.1759	-669.30206	952.61218	1357.52551	-713.13995	943.71686	1392.55127	-665.90186	888.88422	1397.20435	-693.69928	992.92664	922.06384	-683.32947	991.00085	1177.62695	-893.81244	1042.15967	1011.0578	-894.75494	1049.19971	1126.14441	-698.7301	679.01862	874.00262	-670.62952	501.25153	906.57336	-801.45361	377.87204	932.79059	-911.53595	188.46501	976.54724	-943.24133	180.80737	1037.44458	-815.77155	73.10358	942.67712	-760.89923	683.41254	1255.61523	-771.3255	472.75589	1223.23218	-828.20221	292.70682	1241.4303	-866.31372	101.20919	1212.63403	-910.60962	47.26355	1163.73633	-716.177	42.54604	1216.09216	-784.8147	1813.86707	1057.07434	-2845.96875	1034.5769	3357.33179	NaN	NaN	NaN
24	0.23	-662.41779	1751.42017	974.43207	-666.22101	1739.92688	1118.63672	-787.60376	1668.12988	965.58484	-803.54224	1653.98352	1107.37378	-838.18164	1532.81982	1038.9176	-893.0849	1261.2229	1055.33838	-698.60297	1465.54834	1031.9248	-648.03668	1292.44556	1044.70642	-897.42358	1363.5885	1107.7627	-765.24536	1505.23303	861.82745	-788.2309	1311.31287	771.66394	-793.6048	1170.63721	745.90625	-756.6203	1039.62036	742.90881	-677.73181	933.44849	787.01947	-721.03638	922.16772	752.85333	-685.90161	866.52942	752.84637	-771.22467	1508.59033	1221.24646	-788.55927	1327.0238	1325.60999	-761.85345	1182.58862	1355.40051	-711.48578	1073.51025	1377.01392	-640.72168	957.90509	1360.20654	-684.05054	947.63538	1395.34399	-635.31293	894.3114	1399.49207	-680.26349	994.91443	925.77728	-671.30414	990.50879	1180.40283	-880.90021	1042.9397	1012.75916	-882.04523	1049.62427	1128.07373	-680.86316	681.79553	874.79565	-648.14716	502.8197	908.32953	-773.63519	372.21982	934.72638	-873.69031	177.77415	980.93103	-904.52386	168.27516	1042.18237	-771.05371	69.07577	946.8205	-754.04504	683.3869	1256.18896	-768.35455	472.59308	1223.8595	-826.60175	292.97696	1241.4696	-865.9032	101.65192	1212.39929	-910.2439	47.71206	1163.17639	-715.9632	42.60153	1216.24109	-771.13251	1814.25989	1058.06824	-2845.96655	1034.33716	3357.28857	NaN	NaN	NaN
25	0.24	-649.20685	1751.42712	975.04059	-652.34802	1740.27905	1119.39172	-774.01648	1667.96216	966.87695	-789.56421	1654.14331	1109.25488	-824.3017	1532.86316	1040.96875	-879.3717	1261.53394	1058.04553	-684.84198	1465.55969	1033.41943	-634.63171	1292.2821	1046.53015	-883.55493	1364.24573	1110.77759	-752.21643	1505.20679	863.70563	-778.76569	1312.52844	772.22919	-786.94629	1172.5459	745.14331	-754.54639	1040.4502	739.47064	-678.42633	930.23572	781.46045	-723.01373	921.47101	746.70294	-690.00146	864.10547	746.49304	-756.91235	1509.17334	1222.80994	-770.2392	1327.98584	1328.34998	-739.95575	1184.08154	1358.2323	-686.43994	1076.52539	1379.71155	-612.45831	963.04822	1362.49365	-655.19208	951.46869	1397.96619	-604.81384	899.66339	1401.8429	-665.97205	996.39142	928.99146	-658.54358	990.16193	1183.37183	-868.03802	1043.38367	1014.19458	-868.83643	1049.67297	1129.46313	-662.71649	684.15857	875.69452	-626.18536	503.92673	909.82983	-745.59546	365.78336	936.4278	-834.83679	166.77963	984.95404	-865.05768	155.35162	1046.34558	-725.47919	65.31352	950.23743	-747.10516	683.24719	1256.76245	-765.02338	472.31488	1224.44434	-824.67639	293.21777	1241.69531	-865.47729	102.0992	1212.11768	-909.83289	48.35671	1162.75415	-715.88977	42.61523	1216.37341	-757.40918	1814.29541	1059.69788	-2845.9917	1034.41431	3357.51831	NaN	NaN	NaN
26	0.25	-635.32233	1750.84619	976.14874	-638.3493	1740.13525	1120.41846	-759.93359	1667.37329	968.42163	-775.41351	1653.70898	1110.11133	-810.43762	1532.547	1042.92053	-866.44177	1261.6698	1060.60034	-671.04895	1465.23364	1034.92749	-621.22186	1291.86646	1048.25964	-869.47998	1364.4408	1113.49878	-738.99945	1504.83069	865.4873	-768.90424	1313.4408	772.81512	-780.06628	1174.0603	744.47144	-752.66168	1041.05347	736.11884	-681.22107	926.94049	775.73621	-724.75146	920.66144	740.76575	-694.38861	861.93011	739.96686	-742.66681	1509.26013	1224.11572	-752.19629	1328.28723	1330.16577	-718.18835	1185.45276	1361.09058	-661.50787	1079.30835	1382.14124	-584.41718	968.00641	1364.55798	-626.58246	955.22345	1400.3573	-574.54742	905.03906	1404.01587	-652.09302	997.24469	932.42456	-646.3631	989.06531	1186.01086	-855.25977	1043.53223	1015.40668	-855.93964	1049.4624	1130.66455	-645.41565	686.03687	876.6394	-605.08514	504.52948	911.22968	-717.26239	358.78705	937.8963	-795.01202	155.34958	988.19196	-824.78595	142.04291	1049.5271	-679.15869	61.85838	953.04352	-739.55737	682.8056	1257.29907	-761.51514	471.9574	1224.89514	-822.91498	293.47861	1241.74829	-865.00684	102.56915	1211.77454	-909.45154	49.07062	1162.11194	-716.05408	42.46243	1216.59839	-743.77692	1813.86719	1059.9895	-2845.92358	1034.40979	3357.52222	NaN	NaN	NaN
